<svg width="30" height="30" viewBox="0 0 30 30" fill="none" xmlns="http://www.w3.org/2000/svg">
<path d="M2.5 20.7375L6.9875 16.25H18.75C19.413 16.25 20.0489 15.9866 20.5178 15.5178C20.9866 15.0489 21.25 14.413 21.25 13.75V7.5C21.25 6.83696 20.9866 6.20107 20.5178 5.73223C20.0489 5.26339 19.413 5 18.75 5H5C4.33696 5 3.70107 5.26339 3.23223 5.73223C2.76339 6.20107 2.5 6.83696 2.5 7.5V20.7375ZM2.5 22.5H1.25V7.5C1.25 6.50544 1.64509 5.55161 2.34835 4.84835C3.05161 4.14509 4.00544 3.75 5 3.75H18.75C19.7446 3.75 20.6984 4.14509 21.4017 4.84835C22.1049 5.55161 22.5 6.50544 22.5 7.5V13.75C22.5 14.7446 22.1049 15.6984 21.4017 16.4017C20.6984 17.1049 19.7446 17.5 18.75 17.5H7.5L2.5 22.5ZM26.25 25.7375V12.5C26.25 11.837 25.9866 11.2011 25.5178 10.7322C25.0489 10.2634 24.413 10 23.75 10V8.75C24.7446 8.75 25.6984 9.14509 26.4017 9.84835C27.1049 10.5516 27.5 11.5054 27.5 12.5V27.5H26.25L21.25 22.5H10C8.45 22.5 7.125 21.5625 6.55 20.225L7.55 19.225C7.7625 20.375 8.75 21.25 10 21.25H21.7625L26.25 25.7375Z" fill="#FF9A62"/>
</svg>
